<svg xmlns="http://www.w3.org/2000/svg" viewBox="0 0 256 256" width="256" height="256" role="img" aria-label="Teng Rong Tech icon">
  <path fill="currentColor" fill-rule="evenodd" clip-rule="evenodd" d="M243.91 91.72 L238.87 86.68 L229.80 83.65 L222.74 83.65 L221.73 84.66 L216.69 84.66 L215.69 85.67 L208.63 86.68 L205.61 80.63 L197.54 69.54 L186.46 58.46 L172.35 48.38 L151.18 39.31 L143.12 38.30 L142.11 37.29 L125.98 36.28 L124.98 37.29 L113.89 37.29 L112.88 38.30 L103.81 39.31 L94.74 42.33 L81.64 48.38 L72.57 54.43 L58.46 67.53 L46.36 84.66 L42.33 96.76 L39.31 101.80 L39.31 105.83 L41.32 103.81 L57.45 95.75 L59.46 95.75 L74.58 88.69 L82.65 86.68 L85.67 84.66 L103.81 79.62 L107.84 79.62 L108.85 80.63 L104.82 107.84 L101.80 110.87 L88.69 114.90 L86.68 119.94 L86.68 154.20 L87.69 155.21 L87.69 166.30 L88.69 167.31 L88.69 173.35 L89.70 174.36 L90.71 184.44 L98.77 206.61 L97.76 207.62 L94.74 207.62 L86.68 202.58 L75.59 190.49 L69.54 180.41 L64.50 166.30 L63.50 158.24 L62.49 157.23 L61.48 126.99 L57.45 130.02 L37.29 140.09 L18.14 154.20 L12.09 162.27 L10.08 167.31 L10.08 175.37 L11.09 178.39 L17.13 184.44 L26.20 187.46 L38.30 186.46 L50.39 182.43 L53.42 182.43 L65.51 195.53 L75.59 203.59 L92.72 212.66 L101.80 215.69 L109.86 216.69 L110.87 217.70 L116.91 217.70 L117.92 218.71 L137.07 218.71 L138.08 217.70 L144.13 217.70 L145.13 216.69 L149.17 216.69 L153.20 214.68 L156.22 214.68 L159.24 212.66 L164.28 211.65 L177.39 204.60 L185.45 198.55 L195.53 188.47 L205.61 174.36 L211.65 162.27 L215.69 150.17 L216.69 143.12 L208.63 159.24 L199.56 172.35 L185.45 186.46 L173.35 193.51 L167.31 195.53 L150.17 195.53 L138.08 191.50 L128.00 185.45 L119.94 176.38 L114.90 166.30 L111.87 152.19 L110.87 151.18 L109.86 141.10 L113.89 139.09 L126.99 136.06 L142.11 129.01 L148.16 124.98 L154.20 118.93 L157.23 111.87 L156.22 110.87 L156.22 107.84 L154.20 105.83 L145.13 102.80 L129.01 103.81 L128.00 104.82 L123.97 104.82 L122.96 105.83 L111.87 107.84 L110.87 106.83 L110.87 94.74 L111.87 93.73 L112.88 80.63 L115.91 77.61 L125.98 76.60 L126.99 75.59 L163.28 75.59 L164.28 76.60 L170.33 76.60 L171.34 77.61 L178.39 78.61 L186.46 82.65 L192.50 88.69 L194.52 93.73 L194.52 105.83 L191.50 115.91 L185.45 125.98 L175.37 136.06 L168.31 141.10 L156.22 147.15 L144.13 151.18 L144.13 153.20 L147.15 158.24 L152.19 163.28 L163.28 168.31 L173.35 168.31 L185.45 163.28 L197.54 155.21 L211.65 143.12 L233.83 119.94 L241.89 109.86 L244.91 103.81 L244.91 94.74 Z"/>
</svg>
