<svg viewBox="0 0 1024 1024" version="1.1" xmlns="http://www.w3.org/2000/svg" xmlns:xlink="http://www.w3.org/1999/xlink" width="32" height="32"><path d="M951.322747 340.773244c-0.600681-2.981914-1.081635-4.668323-1.768273-6.288217l-67.059302-145.80783c-12.193717-36.429701-47.206138-58.763358-88.167039-58.857503l-494.087025 0.001023c-41.502229 0-73.750701 22.128997-85.435835 57.109696L135.796826 336.317769c-0.358157 1.056052-0.75213 2.617617-1.081635 4.217045-5.496178 16.918321-8.256034 34.287921-8.256034 51.720965 0.059352 61.293995 33.602306 121.466446 87.507006 150.278655 22.282492 11.952216 48.377824 17.971303 77.777411 17.971303 49.27731-0.148379 94.925976-21.85475 126.034485-59.006905 30.961152 36.851303 76.247568 58.405201 125.437897 58.709123 48.796356-0.390903 93.963045-22.036899 124.774795-58.857503 31.113625 37.151132 76.815503 58.764382 126.33636 58.764382 29.971615-0.147356 56.576553-6.472412 78.979796-18.784832 53.093219-29.083385 86.035492-89.044012 86.007863-149.708674C959.40175 374.193401 956.550819 356.699981 951.322747 340.773244z" fill="#1296db"></path><path d="M671.454642 560.504714c-30.81175 36.820604-77.277014 62.510706-126.07337 62.901609-49.190329-0.303922-93.178169-25.901926-124.140345-62.754253-31.108508 37.154201-74.046437 62.420655-123.323746 62.754253-52.78725 0.358157-98.217952-33.135678-104.641245-37.882795l0 184.287213c0 50.872644 41.235147 92.097558 92.100628 92.097558l517.067412 0c50.952462 0 92.101651-41.234123 92.101651-92.097558L894.545626 593.325214c-2.323928 1.427512-41.444924 32.091906-100.099812 29.989011C744.957703 621.539812 702.568267 597.655845 671.454642 560.504714zM750.178611 781.054829 658.06161 781.054829l0-92.117001 92.117001 0L750.178611 781.054829z" fill="#1296db"></path></svg>
