<svg viewBox="0 0 1084 1024" version="1.1" xmlns="http://www.w3.org/2000/svg" xmlns:xlink="http://www.w3.org/1999/xlink" width="33.875" height="32"><path d="M31.440213 1015.486745a1.204706 1.204706 0 0 1-1.184627-1.305098l6.565647-60.355765a1.124392 1.124392 0 0 1 1.124392-1.044078c26.24251-2.409412 47.043765-5.642039 64.090353-12.127373a1.204706 1.204706 0 0 1 1.425569 1.28502l-7.228236 72.543373a1.124392 1.124392 0 0 1-1.064156 1.024H31.400056l0.040157-0.020079zM1.182017 930.213647A1.164549 1.164549 0 0 1 0.017468 928.888471l8.252236-57.685334c0.501961-3.45349 3.413333-6.023529 6.90698-6.023529h0.060235c80.594824 0 145.086745-28.892863 202.069334-83.486118a295.614745 295.614745 0 0 0 29.856627-33.229804 4.658196 4.658196 0 0 1 3.71451-1.807059h72.382745c1.807059 0 2.911373 1.907451 2.007843 3.453491a352.336314 352.336314 0 0 1-45.678431 61.379764c60.134902 7.629804 103.444078 36.643137 129.927529 87.080157a2.369255 2.369255 0 0 1-1.927529 3.413334c-13.793882 1.365333-35.237647 6.144-58.187294 17.167058a7.348706 7.348706 0 0 1-9.316393-2.610196c-14.034824-20.901647-31.382588-36.542745-52.043294-46.983529-28.531451-13.994667-50.597647-16.564706-66.198588-7.669961a370.607686 370.607686 0 0 1-74.571294 40.57851c-45.035922 18.231216-96.737882 27.547608-146.130824 27.708235l0.040157 0.040157z m793.419294-13.512784a2.409412 2.409412 0 0 1-2.329098-2.650353l4.517647-44.734745c0.803137-8.091608 2.469647-16.062745 4.919216-23.772863l51.802353-162.43451a6.565647 6.565647 0 0 1 6.264471-4.618039h57.825882c0.803137 0 1.365333 0.803137 1.124392 1.566118l-55.014902 175.505568a1.204706 1.204706 0 0 0 1.124392 1.566118h42.345412c0.602353 0 1.084235-0.501961 1.084235-1.144471l-0.682666-87.80298c0-0.622431 0.481882-1.144471 1.104313-1.144471h52.464942c3.814902 0 6.987294 3.212549 7.027451 7.127843l1.224784 65.114353c0.200784 11.886431-0.26102 23.732706-1.465726 35.538824l-4.035764 39.855686a2.208627 2.208627 0 0 1-2.188549 2.007843h-167.132863 0.020078z m-528.645019-192.150588c-0.863373 0-1.40549-0.923608-1.024-1.706667 8.83451-18.251294 13.813961-33.812078 18.411921-53.569255a2.30902 2.30902 0 0 1 2.268863-1.807059h67.523765c0.742902 0 1.28502 0.702745 1.124392 1.40549-4.336941 19.676863-11.243922 41.743059-17.307608 54.372392a2.288941 2.288941 0 0 1-2.048 1.305099h-68.949333z m-154.603922 96.75796c-17.307608 9.798275-41.200941 14.576941-61.982117 15.36l18.090666-166.490353a6.585725 6.585725 0 0 1 6.545569-5.943215h59.77349l-16.223373 147.496157c-0.64251 4.557804-2.570039 7.42902-6.123921 9.537254l-0.060235 0.040157z m443.27153 194.118275c-1.445647 0.140549-2.670431-1.144471-2.529883-2.650353l6.02353-60.757333a2.248784 2.248784 0 0 1 1.867294-2.007844c49.79451-7.710118 77.824-38.209255 84.068392-91.477333l22.628392-206.064941a2.208627 2.208627 0 0 1 2.168471-2.007843h50.196078a2.409412 2.409412 0 0 1 2.30902 2.69051l-22.026039 200.583529c-6.284549 60.717176 26.563765 79.570824 38.349803 86.337255 1.064157 0.602353 1.967686 1.104314 2.650353 1.546039 7.690039 4.959373 18.954039 8.673882 29.796393 11.986824a2.42949 2.42949 0 0 1 1.666509 2.509804l-4.156235 58.227451c-0.120471 1.385412-1.325176 2.329098-2.650353 2.007843-20.118588-4.879059-42.445804-13.211608-57.946353-22.849255-15.199373-9.436863-27.607843-24.596078-37.265568-38.972236-0.883451-1.305098-2.69051-1.505882-3.694432-0.361411-12.649412 14.496627-27.808627 29.254275-44.513882 39.353725-16.986353 11.504941-39.29349 18.81349-66.901334 21.845334l-0.040156 0.060235z m13.030902-132.557804a2.409412 2.409412 0 0 1-2.329098-2.670431l26.784627-248.490667a60.67702 60.67702 0 0 0-6.344784-34.093177l-10.601412-20.821333c-0.38149-0.76298 0.120471-1.686588 0.983843-1.686588h226.68549c1.40549 0 2.529882 1.264941 2.349177 2.69051l-33.209726 305.011451s0 0.040157 0.040157 0.040156h-50.798431a2.409412 2.409412 0 0 1-2.329098-2.650352l26.021647-254.192942a2.409412 2.409412 0 0 0-2.329098-2.630274h-94.107608a2.208627 2.208627 0 0 0-2.188549 2.007843L618.674096 880.840784a2.208627 2.208627 0 0 1-2.168471 2.007843H567.634723z m-90.192314-253.891765l-302.541804 0.100392 4.73851-43.369411 0.803137-7.027451a6.605804 6.605804 0 0 1 6.52549-5.963295H531.292762a1.204706 1.204706 0 0 1 1.184628 1.325177L493.143743 949.569255c-0.883451 8.57349-2.549961 20.459922-6.645961 27.949176a68.848941 68.848941 0 0 1-16.042667 19.576471 82.341647 82.341647 0 0 1-22.14651 13.392314c-8.192 3.312941-16.76549 4.999529-25.780705 4.999529h-83.285334l5.561726-56.96251a6.585725 6.585725 0 0 1 6.545568-6.003451h53.087373c7.027451 0 13.151373-2.288941 18.472157-6.927059 5.300706-4.618039 8.312471-10.280157 9.035294-16.966274l20.540235-210.56251a240.138039 240.138039 0 0 1 25.881098-87.662431c0.321255-0.64251-0.160627-1.425569-0.863372-1.425569h-0.060236z m-371.009255 2.790902c-21.303216 0-38.048627-16.564706-37.426196-37.004549 0.602353-20.439843 18.452078-37.004549 39.755294-37.004549 21.283137 0 38.028549 16.564706 37.406118 37.004549-0.64251 20.439843-18.432 37.004549-39.755294 37.004549z m714.189804 10.219922a2.409412 2.409412 0 0 1-2.027922-3.614118l52.806275-86.899451a6.505412 6.505412 0 0 1 5.561725-3.152314h61.96204l-20.540236 39.032471h164.663216a1.204706 1.204706 0 0 1 1.184627 1.345255l-37.386039 360.407843c-1.746824 17.14698-8.874667 37.767529-21.423686 48.911059-12.589176 11.103373-27.668078 16.705255-45.256784 16.705255h-83.767216l5.421176-56.781804a6.585725 6.585725 0 0 1 6.545569-6.02353h54.974745c6.505412 0 11.966745-1.847216 16.243451-5.50149 4.296784-3.654275 6.766431-8.83451 7.42902-15.48047l24.154353-241.664c0.943686-9.276235 4.055843-18.110745 9.075451-25.780706l12.890353-19.656785c0.501961-0.76298-0.060235-1.847216-1.003922-1.847215H820.663115zM16.481782 465.337725l67.925333-199.298509a1.084235 1.084235 0 0 1 1.003922-0.722824h68.547765a1.204706 1.204706 0 0 1 1.124392 1.586196l-67.423373 199.278432a1.084235 1.084235 0 0 1-1.003921 0.742902H17.566017a1.204706 1.204706 0 0 1-1.124392-1.606275z m851.445961-261.039686h167.795451c0.542118 0 1.003922-0.401569 1.084235-1.003921l6.384941-54.753883a1.204706 1.204706 0 0 0-1.164549-1.345255H637.768684a6.605804 6.605804 0 0 0-6.565647 6.304628l-2.971608 49.493333a1.204706 1.204706 0 0 0 1.164549 1.264941h168.357647l-6.886902 56.821961h-161.510902a6.625882 6.625882 0 0 0-6.545568 5.943216l-5.822746 49.814588a1.204706 1.204706 0 0 0 1.204706 1.365333h166.008471l-9.717961 76.779922h-186.287686a6.605804 6.605804 0 0 0-6.545569 5.903059l-5.300706 49.854745a1.204706 1.204706 0 0 0 1.164549 1.365333h460.860236a1.104314 1.104314 0 0 0 1.084235-1.003921l6.224314-53.388549a2.409412 2.409412 0 0 0-2.329098-2.69051h-47.766589l-16.343843-47.947294a7.127843 7.127843 0 0 0-6.666039-4.899138h-62.986039c-1.566118 0-2.590118 1.566118-2.027922 3.092079l18.070589 49.754353h-81.03655l9.717961-76.8h165.566745c0.562196 0 1.003922-0.401569 1.084236-1.003922l6.384941-54.733804a1.204706 1.204706 0 0 0-1.164549-1.365333H860.980605l6.886902-56.821961h0.040157zM134.442566 131.995608l22.829177 95.011137a1.124392 1.124392 0 0 1-1.064157 1.40549H87.559429a1.204706 1.204706 0 0 1-1.144471-0.903529l-14.938353-62.142745a61.339608 61.339608 0 0 0-15.179294-27.90902l-7.368784-7.730196h84.028235a1.204706 1.204706 0 0 1 1.144471 0.943686l0.301176 1.325177h0.040157z m19.476079-75.494902C152.613547 79.932235 130.828449 98.906353 105.228449 98.906353c-25.559843 0-45.236706-18.974118-43.951687-42.405647C62.58186 33.089255 84.366958 14.115137 109.94688 14.115137s45.256784 18.974118 43.971765 42.385569z m850.120784 64.732863h70.676078c0.542118 0 1.003922-0.401569 1.084236-0.963765l8.192-80.614902a1.204706 1.204706 0 0 0-1.204706-1.345255H886.881782L890.556135 3.814902a1.184627 1.184627 0 0 0-1.164549-1.325177h-63.447843a6.625882 6.625882 0 0 0-6.52549 6.02353l-3.192471 29.796392H602.249939c-0.943686 0-1.445647 1.084235-0.863373 1.867294l0.401569 0.522039c9.436863 12.488784 13.773804 28.170039 12.006902 43.550118l-4.075922 35.679373a1.204706 1.204706 0 0 0 1.184628 1.345254h68.34698c0.562196 0 1.044078-0.401569 1.104314-1.003921l3.212549-27.306667 321.375372-0.080313a1.204706 1.204706 0 0 1 1.164549 1.345254l-3.232627 25.660236a1.204706 1.204706 0 0 0 1.184627 1.365333l-0.040156-0.040157zM180.080841 91.075765c-0.38149 0.76298 0.200784 1.726745 1.064157 1.726745h326.937098c0.361412 0 0.562196 0.441725 0.341333 0.702745a101.396078 101.396078 0 0 0-26.001569 57.785725l-27.105882 246.884393a12.649412 12.649412 0 0 1-4.557804 8.613647 14.556863 14.556863 0 0 1-9.717961 3.353098h-17.327686l7.42902-75.856314a1.204706 1.204706 0 0 0-1.204706-1.325177h-57.845961a1.084235 1.084235 0 0 0-1.084235 1.003922l-5.621961 47.846902h-39.695059l9.135686-88.545882h98.022902c0.542118 0 1.024-0.401569 1.084236-1.003922l5.742431-52.043294a1.184627 1.184627 0 0 0-1.184627-1.325177h-97.681569l5.38102-46.320941h93.30447c0.562196 0 1.003922-0.401569 1.104314-0.983843l5.943216-47.344941a1.204706 1.204706 0 0 0-1.184628-1.345255h-176.850823l8.593568-21.483921h-53.910588a6.465255 6.465255 0 0 0-5.963294 3.895215L187.610253 190.885647a1.204706 1.204706 0 0 0 1.064156 1.686588h94.509177l-5.38102 46.320941H186.10437a6.585725 6.585725 0 0 0-6.505412 5.822746l-6.123921 47.184313a1.204706 1.204706 0 0 0 1.184627 1.365334h97.15953l-9.135687 88.545882H223.490409l5.581804-47.505569a1.204706 1.204706 0 0 0-1.184627-1.345255H176.185625c-3.292863 0-6.023529 2.449569-6.505412 5.802667l-10.280157 75.334275-2.369254 20.98196a1.204706 1.204706 0 0 0 1.184627 1.345255h238.672314l-3.212549 29.354667a1.184627 1.184627 0 0 0 1.184627 1.325176h57.424314c18.672941 0 34.334118-5.240471 46.923294-15.761568 12.589176-10.521098 19.83749-24.375216 21.684706-41.562353L560.004919 42.465882a2.409412 2.409412 0 0 0-2.329098-2.690509H280.754096L301.17386 0h-71.780392a6.485333 6.485333 0 0 0-5.862902 3.654275L180.040684 91.095843l0.060235-0.020078z" fill="#ff6200"></path></svg>