<?xml version="1.0" standalone="no"?><!DOCTYPE svg PUBLIC "-//W3C//DTD SVG 1.1//EN" "http://www.w3.org/Graphics/SVG/1.1/DTD/svg11.dtd"><svg t="1781956084728" class="icon" viewBox="0 0 1024 1024" version="1.1" xmlns="http://www.w3.org/2000/svg" p-id="7141" width="32" height="32" xmlns:xlink="http://www.w3.org/1999/xlink"><path d="M397.84 280.88h224c69.36 0 122.24-150.24 122.24-150.24 0-44.96-4.48-78.96-81.44-81.36-77.04-2.48-95.44 53.76-150.72 53.76-56.72 0-85.04-44.16-154.8-53.76-69.76-9.68-81.52 36.4-81.52 81.36 0 0 52.88 150.24 122.24 150.24z m236.24 46.4H397.84C136.24 327.28 72 840.8 72 840.8c0 67.44 54.64 135.2 122.16 135.2h643.6c67.52 0 122.24-67.76 122.24-135.2 0 0-64.32-513.52-325.92-513.52z m26.8 394.64c15.76 0 28.56 12.8 28.56 28.56 0 15.68-12.8 28.48-28.56 28.48H545.04v74.88c0 15.76-12.72 28.48-28.48 28.48S488 869.6 488 853.84v-74.88H371.44a28.56 28.56 0 0 1-28.56-28.48c0-15.76 12.8-28.56 28.56-28.56H488v-36.24H371.44c-15.76 0-28.56-12.72-28.56-28.48s12.8-28.56 28.56-28.56h78.8L369.52 485.36a28.6 28.6 0 0 1 10.48-38.96c13.68-7.84 31.12-3.2 38.96 10.4l97.2 171.84h4.88L618.24 456.8a28.504 28.504 0 1 1 49.36 28.56L586.96 628.64h73.92c15.76 0 28.56 12.8 28.56 28.56 0 15.76-12.8 28.48-28.56 28.48H545.04v36.24h115.84z" fill="#FE5C2D" p-id="7142"></path><path d="M307.28 433.12H739.2v477.92H307.28V433.12z" fill="#FE5C2D" p-id="7143"></path><path d="M610.08 733.36c0 29.04-7.2 50.88-21.68 65.44-14.32 14.56-37.92 22.96-70.72 25.36v67.36h-33.04v-66.32c-18.56-0.64-36.24-2-52.88-3.92-16.72-2.08-29.44-4.48-38.16-7.28v-50.96c9.6 3.12 22.8 5.76 39.52 8.16 16.72 2.24 33.92 3.68 51.52 4.32V682.24c-17.28-3.68-31.6-7.76-42.96-12.24-11.2-4.48-20.32-10.16-27.04-16.96-6.8-6.8-11.6-15.12-14.4-25.04-2.88-9.92-4.24-22-4.24-36.24 0-28.8 7.68-49.92 22.88-63.36 15.36-13.44 37.28-21.12 65.76-22.96v-43.2h33.04v43.2c14.56 0.64 28.72 2 42.32 4.08 13.6 1.92 23.92 4.16 31.04 6.64v48.32c-3.68-1.36-8.32-2.56-13.76-3.76-5.28-1.28-11.28-2.48-17.76-3.52-6.48-1.04-13.36-2-20.56-2.72-7.04-0.8-14.16-1.44-21.28-1.68v86.72c17.28 3.76 31.84 8.16 43.68 13.28 11.76 5.04 21.28 11.28 28.56 18.56 7.28 7.28 12.4 15.92 15.52 25.92 3.12 10.08 4.64 22.08 4.64 36.08z m-161.6-141.6c0 5.6 0.48 10.4 1.36 14.4 0.96 4 2.64 7.44 5.12 10.4s6.16 5.68 10.88 8.16c4.88 2.48 11.12 4.8 18.8 6.88V552.8c-13.6 1.28-23.04 4.64-28.32 10.08-5.2 5.36-7.84 14.96-7.84 28.88z m69.2 182.8c14.56-1.52 24.88-5.2 30.88-11.12 6-5.84 9.04-15.28 9.04-28.32 0-6.16-0.56-11.52-1.6-16.16a27.2 27.2 0 0 0-6-12.16c-2.96-3.36-7.04-6.4-12.4-9.04-5.2-2.64-11.84-5.12-19.92-7.6v84.4z" fill="#FFFFFF" p-id="7144"></path></svg>