<svg viewBox="0 0 1024 1024" version="1.1" xmlns="http://www.w3.org/2000/svg" width="32" height="32" xmlns:xlink="http://www.w3.org/1999/xlink"><path d="M652.8 358.4h-352l48-195.2c19.2-76.8 86.4-131.2 166.4-131.2 51.2 0 102.4 22.4 134.4 64s44.8 96 32 147.2l-28.8 115.2z m-281.6-57.6H608l16-73.6c9.6-35.2 0-70.4-22.4-99.2-22.4-28.8-54.4-44.8-89.6-44.8-54.4 0-99.2 35.2-112 86.4l-28.8 131.2z" fill="#FEE504"></path><path d="M761.6 108.8c-32-41.6-80-64-134.4-64-12.8 0-25.6 0-38.4 3.2 22.4 9.6 41.6 25.6 57.6 48 0 3.2 3.2 3.2 3.2 6.4 25.6 6.4 48 19.2 67.2 41.6 22.4 28.8 28.8 64 22.4 99.2l-16 73.6h-60.8l-9.6 41.6h-233.6l-3.2 12.8h352l25.6-115.2c12.8-51.2 0-105.6-32-147.2z" fill="#FDBA03"></path><path d="M582.4 108.8c9.6 6.4 16 12.8 22.4 22.4 22.4 28.8 28.8 64 22.4 99.2L608 300.8h-118.4l-3.2 12.8h176l16-73.6c12.8-48 3.2-99.2-25.6-140.8-6.4-3.2-16-3.2-25.6-3.2-16 3.2-32 6.4-44.8 12.8zM371.2 300.8l32-124.8c12.8-51.2 57.6-86.4 112-86.4 22.4-19.2 44.8-32 73.6-38.4-22.4-12.8-48-19.2-73.6-19.2-80 0-147.2 54.4-166.4 131.2l-48 195.2h118.4l12.8-54.4h-60.8z" fill="#FEE504"></path><path d="M662.4 313.6h-176l3.2-12.8h-57.6l-12.8 57.6h233.6zM582.4 108.8c12.8-6.4 28.8-9.6 44.8-9.6 9.6 0 16 0 25.6 3.2 0-3.2-3.2-3.2-3.2-6.4-16-19.2-35.2-35.2-57.6-48-28.8 6.4-54.4 19.2-73.6 38.4 22.4 0 44.8 9.6 64 22.4z" fill="#FEE504"></path><path d="M864 992H323.2c-19.2 0-32-16-32-32l-64-624c0-19.2 16-32 32-32h537.6c19.2 0 32 16 32 32L896 960c0 16-16 32-32 32z" fill="#FDBA03"></path><path d="M700.8 992H160c-19.2 0-32-16-32-32l64-624c0-19.2 16-32 32-32h537.6c19.2 0 32 16 32 32l-64 624c3.2 16-12.8 32-28.8 32z" fill="#FEE504"></path><path d="M358.4 848c-6.4-3.2-6.4-6.4-3.2-9.6l76.8-153.6-121.6-35.2c-3.2 0-3.2-3.2-6.4-6.4 0-3.2 0-6.4 3.2-6.4l259.2-185.6c3.2-3.2 6.4-3.2 9.6 0 3.2 0 3.2 3.2 3.2 9.6l-76.8 153.6 105.6 32c3.2 0 3.2 3.2 6.4 6.4 0 3.2 0 6.4-3.2 9.6l-243.2 192c-3.2-6.4-6.4-6.4-9.6-6.4z" fill="#231815"></path></svg>
